<mxfile host="app.diagrams.net" agent="Mozilla/5.0 (X11; Linux x86_64) AppleWebKit/537.36 (KHTML, like Gecko) Chrome/127.0.0.0 Safari/537.36" version="24.7.7">
  <diagram name="Page-1" id="UCbcMac0FGYCoa-PxeIs">
    <mxGraphModel dx="2049" dy="1077" grid="1" gridSize="10" guides="1" tooltips="1" connect="1" arrows="1" fold="1" page="1" pageScale="1" pageWidth="850" pageHeight="1100" math="0" shadow="0">
      <root>
        <mxCell id="0" />
        <mxCell id="1" parent="0" />
        <mxCell id="zBSFJUED10OwRIcMYpXY-1" style="edgeStyle=orthogonalEdgeStyle;rounded=0;orthogonalLoop=1;jettySize=auto;html=1;endArrow=none;endFill=0;" edge="1" parent="1" source="zBSFJUED10OwRIcMYpXY-3" target="zBSFJUED10OwRIcMYpXY-19">
          <mxGeometry relative="1" as="geometry" />
        </mxCell>
        <mxCell id="zBSFJUED10OwRIcMYpXY-2" value="n" style="edgeLabel;html=1;align=center;verticalAlign=middle;resizable=0;points=[];" vertex="1" connectable="0" parent="zBSFJUED10OwRIcMYpXY-1">
          <mxGeometry x="0.0212" relative="1" as="geometry">
            <mxPoint as="offset" />
          </mxGeometry>
        </mxCell>
        <mxCell id="zBSFJUED10OwRIcMYpXY-3" value="alumno" style="rounded=0;whiteSpace=wrap;html=1;fillColor=#dae8fc;strokeColor=#6c8ebf;" vertex="1" parent="1">
          <mxGeometry x="240" y="150" width="200" height="100" as="geometry" />
        </mxCell>
        <mxCell id="zBSFJUED10OwRIcMYpXY-4" style="edgeStyle=orthogonalEdgeStyle;rounded=0;orthogonalLoop=1;jettySize=auto;html=1;entryX=0.5;entryY=0;entryDx=0;entryDy=0;endArrow=none;endFill=0;" edge="1" parent="1" source="zBSFJUED10OwRIcMYpXY-5" target="zBSFJUED10OwRIcMYpXY-3">
          <mxGeometry relative="1" as="geometry" />
        </mxCell>
        <mxCell id="zBSFJUED10OwRIcMYpXY-5" value="&lt;b&gt;id_alumno&lt;/b&gt;" style="ellipse;whiteSpace=wrap;html=1;" vertex="1" parent="1">
          <mxGeometry y="50" width="120" height="80" as="geometry" />
        </mxCell>
        <mxCell id="zBSFJUED10OwRIcMYpXY-6" style="edgeStyle=orthogonalEdgeStyle;rounded=0;orthogonalLoop=1;jettySize=auto;html=1;endArrow=none;endFill=0;" edge="1" parent="1" source="zBSFJUED10OwRIcMYpXY-7" target="zBSFJUED10OwRIcMYpXY-3">
          <mxGeometry relative="1" as="geometry" />
        </mxCell>
        <mxCell id="zBSFJUED10OwRIcMYpXY-7" value="nombre" style="ellipse;whiteSpace=wrap;html=1;" vertex="1" parent="1">
          <mxGeometry y="160" width="120" height="80" as="geometry" />
        </mxCell>
        <mxCell id="zBSFJUED10OwRIcMYpXY-8" style="edgeStyle=orthogonalEdgeStyle;rounded=0;orthogonalLoop=1;jettySize=auto;html=1;entryX=0.5;entryY=1;entryDx=0;entryDy=0;endArrow=none;endFill=0;" edge="1" parent="1" source="zBSFJUED10OwRIcMYpXY-9" target="zBSFJUED10OwRIcMYpXY-3">
          <mxGeometry relative="1" as="geometry" />
        </mxCell>
        <mxCell id="zBSFJUED10OwRIcMYpXY-9" value="apellido" style="ellipse;whiteSpace=wrap;html=1;" vertex="1" parent="1">
          <mxGeometry y="260" width="120" height="80" as="geometry" />
        </mxCell>
        <mxCell id="zBSFJUED10OwRIcMYpXY-10" value="grupo" style="rounded=0;whiteSpace=wrap;html=1;fillColor=#dae8fc;strokeColor=#6c8ebf;" vertex="1" parent="1">
          <mxGeometry x="790" y="150" width="200" height="100" as="geometry" />
        </mxCell>
        <mxCell id="zBSFJUED10OwRIcMYpXY-11" style="edgeStyle=orthogonalEdgeStyle;rounded=0;orthogonalLoop=1;jettySize=auto;html=1;entryX=0.5;entryY=0;entryDx=0;entryDy=0;endArrow=none;endFill=0;" edge="1" parent="1" source="zBSFJUED10OwRIcMYpXY-12" target="zBSFJUED10OwRIcMYpXY-10">
          <mxGeometry relative="1" as="geometry" />
        </mxCell>
        <mxCell id="zBSFJUED10OwRIcMYpXY-12" value="&lt;b&gt;id_grupo&lt;/b&gt;" style="ellipse;whiteSpace=wrap;html=1;" vertex="1" parent="1">
          <mxGeometry x="1080" y="50" width="120" height="80" as="geometry" />
        </mxCell>
        <mxCell id="zBSFJUED10OwRIcMYpXY-13" style="edgeStyle=orthogonalEdgeStyle;rounded=0;orthogonalLoop=1;jettySize=auto;html=1;endArrow=none;endFill=0;entryX=1;entryY=0.5;entryDx=0;entryDy=0;" edge="1" parent="1" source="zBSFJUED10OwRIcMYpXY-14" target="zBSFJUED10OwRIcMYpXY-10">
          <mxGeometry relative="1" as="geometry">
            <mxPoint x="1320" y="200" as="targetPoint" />
          </mxGeometry>
        </mxCell>
        <mxCell id="zBSFJUED10OwRIcMYpXY-14" value="color" style="ellipse;whiteSpace=wrap;html=1;" vertex="1" parent="1">
          <mxGeometry x="1080" y="160" width="120" height="80" as="geometry" />
        </mxCell>
        <mxCell id="zBSFJUED10OwRIcMYpXY-15" style="edgeStyle=orthogonalEdgeStyle;rounded=0;orthogonalLoop=1;jettySize=auto;html=1;entryX=0.5;entryY=1;entryDx=0;entryDy=0;endArrow=none;endFill=0;" edge="1" parent="1" source="zBSFJUED10OwRIcMYpXY-16" target="zBSFJUED10OwRIcMYpXY-10">
          <mxGeometry relative="1" as="geometry" />
        </mxCell>
        <mxCell id="zBSFJUED10OwRIcMYpXY-16" value="cantidad_por_grupo" style="ellipse;whiteSpace=wrap;html=1;" vertex="1" parent="1">
          <mxGeometry x="1080" y="260" width="120" height="80" as="geometry" />
        </mxCell>
        <mxCell id="zBSFJUED10OwRIcMYpXY-17" value="" style="edgeStyle=orthogonalEdgeStyle;rounded=0;orthogonalLoop=1;jettySize=auto;html=1;entryX=0;entryY=0.5;entryDx=0;entryDy=0;endArrow=none;endFill=0;" edge="1" parent="1" source="zBSFJUED10OwRIcMYpXY-19" target="zBSFJUED10OwRIcMYpXY-10">
          <mxGeometry relative="1" as="geometry" />
        </mxCell>
        <mxCell id="zBSFJUED10OwRIcMYpXY-18" value="1" style="edgeLabel;html=1;align=center;verticalAlign=middle;resizable=0;points=[];" vertex="1" connectable="0" parent="zBSFJUED10OwRIcMYpXY-17">
          <mxGeometry x="0.1762" relative="1" as="geometry">
            <mxPoint as="offset" />
          </mxGeometry>
        </mxCell>
        <mxCell id="zBSFJUED10OwRIcMYpXY-19" value="tiene&amp;nbsp;" style="rhombus;whiteSpace=wrap;html=1;fillColor=#f8cecc;strokeColor=#b85450;" vertex="1" parent="1">
          <mxGeometry x="550" y="110" width="170" height="180" as="geometry" />
        </mxCell>
      </root>
    </mxGraphModel>
  </diagram>
</mxfile>
